<?xml version="1.0"?>
<svg xmlns="http://www.w3.org/2000/svg" id="Layer_1" data-name="Layer 1" viewBox="0 0 447.52 490.06"><defs><style>.cls-1{fill:#f59d24;}.cls-2{fill:#59637c;}</style></defs><title>logo_FPV_orange</title><path class="cls-1" d="M350.46,396.85,372,359.58l-21.51-37.27-37.36-64.7h87.26l-6.28-10.86-15.23-26.4-43.48-75.29-21.51-37.27H183.57L328.94,359.58h0ZM248.12,145.06h44.22l43.47,75.29H291.59Z" transform="translate(-72.88)"/><polygon class="cls-1" points="373 157.03 351.86 193.65 351.85 193.65 323.8 145.06 302.28 107.79 259.26 107.79 280.77 145.06 324.24 220.35 330.34 230.91 330.35 230.91 345.76 257.61 351.86 268.19 357.96 257.61 373.37 230.92 379.47 220.35 416.03 157.03 422.95 145.06 444.47 107.79 401.43 107.79 379.91 145.06 373 157.03"/><polygon class="cls-1" points="223.75 415.54 132.57 257.61 183.36 257.61 161.85 220.35 111.06 220.35 67.59 145.06 118.38 145.06 96.86 107.79 3.04 107.79 68.03 220.35 89.54 257.61 223.75 490.06 245.26 452.8 235.4 435.71 223.75 415.54"/><path class="cls-2" d="M296.64,22.82A200.27,200.27,0,0,1,437.3,80.41h31a223.5,223.5,0,0,0-343.38,0h31A200.22,200.22,0,0,1,296.64,22.82Z" transform="translate(-72.88)"/><path class="cls-2" d="M513.61,169,496.1,199.34a200.91,200.91,0,0,1,1.48,24.42c0,98.83-71.71,181.21-165.83,197.87l12.06,20.88C444.61,420.8,520.4,331,520.4,223.76A223.2,223.2,0,0,0,513.61,169Z" transform="translate(-72.88)"/><path class="cls-2" d="M95.7,223.76a202.61,202.61,0,0,1,1.47-24.4L79.67,169a222,222,0,0,0-6.79,54.73C72.88,326,141.77,412.39,235.57,439L218,408.7C146.18,378,95.7,306.67,95.7,223.76Z" transform="translate(-72.88)"/></svg>
